<svg width="746" height="416" viewBox="0 0 746 416" fill="none" xmlns="http://www.w3.org/2000/svg">
<g filter="url(#filter0_d_6_749)">
<rect x="15" y="15" width="714" height="384" rx="4" fill="white"/>
<rect x="15.5" y="15.5" width="713" height="383" rx="3.5" stroke="#EAEAEA"/>
</g>
<path d="M123 202C142.667 229 174.5 282.5 216 282.5C252.5 280.913 271 258.5 309 202C330.5 173 370.777 148 402 148C437.5 148 448.5 156.096 495 165C518.5 169.5 558 159.5 588 142C618 121.184 646.5 114.5 681.5 114.5" stroke="#EDDFFF" stroke-width="2"/>
<path d="M33.642 49H31.392L35.4886 37.3636H38.0909L42.1932 49H39.9432L36.8352 39.75H36.7443L33.642 49ZM33.7159 44.4375H39.8523V46.1307H33.7159V44.4375ZM45.6918 43.8864V49H43.6349V40.2727H45.6009V41.7557H45.7031C45.9039 41.267 46.224 40.8788 46.6634 40.5909C47.1065 40.303 47.6539 40.1591 48.3054 40.1591C48.9077 40.1591 49.4323 40.2879 49.8793 40.5455C50.33 40.803 50.6785 41.1761 50.9247 41.6648C51.1747 42.1534 51.2978 42.7462 51.294 43.4432V49H49.2372V43.7614C49.2372 43.178 49.0857 42.7216 48.7827 42.392C48.4834 42.0625 48.0687 41.8977 47.5384 41.8977C47.1785 41.8977 46.8584 41.9773 46.5781 42.1364C46.3016 42.2917 46.0838 42.517 45.9247 42.8125C45.7694 43.108 45.6918 43.4659 45.6918 43.8864ZM55.8963 49.1761C55.3433 49.1761 54.8452 49.0777 54.402 48.8807C53.9626 48.6799 53.6141 48.3845 53.3565 47.9943C53.1027 47.6042 52.9759 47.1231 52.9759 46.5511C52.9759 46.0587 53.0668 45.6515 53.2486 45.3295C53.4304 45.0076 53.6785 44.75 53.9929 44.5568C54.3073 44.3636 54.6615 44.2178 55.0554 44.1193C55.4531 44.017 55.8641 43.9432 56.2884 43.8977C56.7997 43.8447 57.2145 43.7973 57.5327 43.7557C57.8509 43.7102 58.0819 43.642 58.2259 43.5511C58.3736 43.4564 58.4474 43.3106 58.4474 43.1136V43.0795C58.4474 42.6515 58.3205 42.3201 58.0668 42.0852C57.813 41.8504 57.4474 41.733 56.9702 41.733C56.4664 41.733 56.0668 41.8428 55.7713 42.0625C55.4796 42.2822 55.2827 42.5417 55.1804 42.8409L53.2599 42.5682C53.4115 42.0379 53.6615 41.5947 54.0099 41.2386C54.3584 40.8788 54.7846 40.6098 55.2884 40.4318C55.7921 40.25 56.349 40.1591 56.9588 40.1591C57.3793 40.1591 57.7978 40.2083 58.2145 40.3068C58.6312 40.4053 59.0118 40.5682 59.3565 40.7955C59.7012 41.0189 59.9777 41.3239 60.1861 41.7102C60.3982 42.0966 60.5043 42.5795 60.5043 43.1591V49H58.527V47.8011H58.4588C58.3338 48.0436 58.1577 48.2708 57.9304 48.483C57.7069 48.6913 57.4247 48.8598 57.0838 48.9886C56.7467 49.1136 56.3509 49.1761 55.8963 49.1761ZM56.4304 47.6648C56.8433 47.6648 57.2012 47.5833 57.5043 47.4205C57.8073 47.2538 58.0402 47.0341 58.2031 46.7614C58.3698 46.4886 58.4531 46.1913 58.4531 45.8693V44.8409C58.3887 44.8939 58.2789 44.9432 58.1236 44.9886C57.9721 45.0341 57.8016 45.0739 57.6122 45.108C57.4228 45.142 57.2353 45.1723 57.0497 45.1989C56.8641 45.2254 56.7031 45.2481 56.5668 45.267C56.2599 45.3087 55.9853 45.3769 55.7429 45.4716C55.5005 45.5663 55.3092 45.6989 55.169 45.8693C55.0289 46.036 54.9588 46.2519 54.9588 46.517C54.9588 46.8958 55.0971 47.1818 55.3736 47.375C55.6501 47.5682 56.0024 47.6648 56.4304 47.6648ZM64.6293 37.3636V49H62.5724V37.3636H64.6293ZM68.0227 52.2727C67.7424 52.2727 67.483 52.25 67.2443 52.2045C67.0095 52.1629 66.822 52.1136 66.6818 52.0568L67.1591 50.4545C67.4583 50.5417 67.7254 50.5833 67.9602 50.5795C68.1951 50.5758 68.4015 50.5019 68.5795 50.358C68.7614 50.2178 68.9148 49.983 69.0398 49.6534L69.2159 49.1818L66.0511 40.2727H68.233L70.2443 46.8636H70.3352L72.3523 40.2727H74.5398L71.0455 50.0568C70.8826 50.5189 70.6667 50.9148 70.3977 51.2443C70.1288 51.5777 69.7992 51.8314 69.4091 52.0057C69.0227 52.1837 68.5606 52.2727 68.0227 52.2727ZM80.321 40.2727V41.8636H75.304V40.2727H80.321ZM76.5426 38.1818H78.5994V46.375C78.5994 46.6515 78.6411 46.8636 78.7244 47.0114C78.8116 47.1553 78.9252 47.2538 79.0653 47.3068C79.2055 47.3598 79.3608 47.3864 79.5312 47.3864C79.66 47.3864 79.7775 47.3769 79.8835 47.358C79.9934 47.339 80.0767 47.322 80.1335 47.3068L80.4801 48.9148C80.3703 48.9527 80.2131 48.9943 80.0085 49.0398C79.8078 49.0852 79.5616 49.1117 79.2699 49.1193C78.7547 49.1345 78.2907 49.0568 77.8778 48.8864C77.465 48.7121 77.1373 48.4432 76.8949 48.0795C76.6563 47.7159 76.5388 47.2614 76.5426 46.7159V38.1818ZM82.0412 49V40.2727H84.098V49H82.0412ZM83.0753 39.0341C82.7495 39.0341 82.4692 38.9261 82.2344 38.7102C81.9995 38.4905 81.8821 38.2273 81.8821 37.9205C81.8821 37.6098 81.9995 37.3466 82.2344 37.1307C82.4692 36.911 82.7495 36.8011 83.0753 36.8011C83.4048 36.8011 83.6851 36.911 83.9162 37.1307C84.151 37.3466 84.2685 37.6098 84.2685 37.9205C84.2685 38.2273 84.151 38.4905 83.9162 38.7102C83.6851 38.9261 83.4048 39.0341 83.0753 39.0341ZM90.0199 49.1705C89.1487 49.1705 88.4006 48.9792 87.7756 48.5966C87.1544 48.214 86.6752 47.6856 86.3381 47.0114C86.0047 46.3333 85.8381 45.553 85.8381 44.6705C85.8381 43.7841 86.0085 43.0019 86.3494 42.3239C86.6903 41.642 87.1714 41.1117 87.7926 40.733C88.4176 40.3504 89.1563 40.1591 90.0085 40.1591C90.7169 40.1591 91.3438 40.2898 91.8892 40.5511C92.4384 40.8087 92.8759 41.1742 93.2017 41.6477C93.5275 42.1174 93.7131 42.6667 93.7585 43.2955H91.7926C91.7131 42.875 91.5237 42.5246 91.2244 42.2443C90.929 41.9602 90.5331 41.8182 90.0369 41.8182C89.6165 41.8182 89.2472 41.9318 88.929 42.1591C88.6108 42.3826 88.3627 42.7045 88.1847 43.125C88.0104 43.5455 87.9233 44.0492 87.9233 44.6364C87.9233 45.2311 88.0104 45.7424 88.1847 46.1705C88.3589 46.5947 88.6032 46.9223 88.9176 47.1534C89.2358 47.3807 89.6089 47.4943 90.0369 47.4943C90.34 47.4943 90.6108 47.4375 90.8494 47.3239C91.0919 47.2064 91.2945 47.0379 91.4574 46.8182C91.6203 46.5985 91.732 46.3314 91.7926 46.017H93.7585C93.7093 46.6345 93.5275 47.1818 93.2131 47.6591C92.8987 48.1326 92.4706 48.5038 91.929 48.7727C91.3873 49.0379 90.7509 49.1705 90.0199 49.1705ZM102.345 42.5795L100.47 42.7841C100.417 42.5947 100.324 42.4167 100.192 42.25C100.063 42.0833 99.8887 41.9489 99.669 41.8466C99.4493 41.7443 99.1804 41.6932 98.8622 41.6932C98.4342 41.6932 98.0743 41.786 97.7827 41.9716C97.4948 42.1572 97.3527 42.3977 97.3565 42.6932C97.3527 42.947 97.4455 43.1534 97.6349 43.3125C97.8281 43.4716 98.1463 43.6023 98.5895 43.7045L100.078 44.0227C100.904 44.2008 101.518 44.483 101.919 44.8693C102.324 45.2557 102.529 45.7614 102.533 46.3864C102.529 46.9356 102.368 47.4205 102.05 47.8409C101.735 48.2576 101.298 48.5833 100.737 48.8182C100.177 49.053 99.5327 49.1705 98.8054 49.1705C97.7372 49.1705 96.8774 48.947 96.2259 48.5C95.5743 48.0492 95.1861 47.4223 95.0611 46.6193L97.0668 46.4261C97.1577 46.8201 97.3509 47.1174 97.6463 47.3182C97.9418 47.5189 98.3262 47.6193 98.7997 47.6193C99.2884 47.6193 99.6804 47.5189 99.9759 47.3182C100.275 47.1174 100.425 46.8693 100.425 46.5739C100.425 46.3239 100.328 46.1174 100.135 45.9545C99.9455 45.7917 99.6501 45.6667 99.2486 45.5795L97.7599 45.267C96.9228 45.0928 96.3035 44.7992 95.902 44.3864C95.5005 43.9697 95.3016 43.4432 95.3054 42.8068C95.3016 42.2689 95.4474 41.803 95.7429 41.4091C96.0421 41.0114 96.4569 40.7045 96.9872 40.4886C97.5213 40.2689 98.1368 40.1591 98.8338 40.1591C99.8565 40.1591 100.661 40.3769 101.249 40.8125C101.839 41.2481 102.205 41.8371 102.345 42.5795Z" fill="#1C1C1C"/>
<path d="M32.6506 77H31.358L35.0966 66.8182H36.3693L40.108 77H38.8153L35.7727 68.429H35.6932L32.6506 77ZM33.1278 73.0227H38.3381V74.1165H33.1278V73.0227ZM42.7081 72.4062V77H41.5348V69.3636H42.6683V70.5568H42.7678C42.9467 70.169 43.2185 69.8575 43.5831 69.6222C43.9477 69.3835 44.4183 69.2642 44.995 69.2642C45.5121 69.2642 45.9645 69.3703 46.3523 69.5824C46.7401 69.7912 47.0417 70.1094 47.2571 70.5369C47.4725 70.9612 47.5803 71.4981 47.5803 72.1477V77H46.407V72.2273C46.407 71.6274 46.2512 71.16 45.9396 70.8253C45.6281 70.4872 45.2005 70.3182 44.657 70.3182C44.2824 70.3182 43.9477 70.3994 43.6527 70.5618C43.361 70.7242 43.1307 70.9612 42.9616 71.2727C42.7926 71.5843 42.7081 71.9621 42.7081 72.4062ZM51.9714 77.179C51.4875 77.179 51.0484 77.0878 50.6539 76.9055C50.2595 76.7199 49.9463 76.4531 49.7143 76.1051C49.4823 75.7538 49.3663 75.3295 49.3663 74.8324C49.3663 74.3949 49.4525 74.0402 49.6248 73.7685C49.7972 73.4934 50.0275 73.2779 50.3159 73.1222C50.6042 72.9664 50.9224 72.8504 51.2704 72.7741C51.6217 72.6946 51.9747 72.6316 52.3294 72.5852C52.7934 72.5256 53.1696 72.4808 53.4579 72.451C53.7496 72.4179 53.9617 72.3632 54.0943 72.2869C54.2302 72.2107 54.2981 72.0781 54.2981 71.8892V71.8494C54.2981 71.3589 54.1639 70.9777 53.8954 70.706C53.6303 70.4342 53.2276 70.2983 52.6873 70.2983C52.1272 70.2983 51.688 70.4209 51.3699 70.6662C51.0517 70.9115 50.8279 71.1733 50.6987 71.4517L49.585 71.054C49.7839 70.59 50.0491 70.2287 50.3805 69.9702C50.7153 69.7083 51.0798 69.526 51.4743 69.4233C51.872 69.3172 52.2631 69.2642 52.6475 69.2642C52.8928 69.2642 53.1745 69.294 53.4927 69.3537C53.8142 69.41 54.1241 69.5277 54.4224 69.7067C54.724 69.8857 54.9743 70.1558 55.1731 70.517C55.372 70.8783 55.4714 71.3622 55.4714 71.9688V77H54.2981V75.9659H54.2385C54.1589 76.1316 54.0263 76.3089 53.8407 76.4979C53.6551 76.6868 53.4082 76.8475 53.1 76.9801C52.7917 77.1127 52.4155 77.179 51.9714 77.179ZM52.1504 76.125C52.6144 76.125 53.0055 76.0339 53.3237 75.8516C53.6452 75.6693 53.8871 75.4339 54.0495 75.1456C54.2153 74.8572 54.2981 74.554 54.2981 74.2358V73.1619C54.2484 73.2216 54.139 73.2763 53.97 73.326C53.8043 73.3724 53.612 73.4138 53.3933 73.4503C53.1779 73.4834 52.9674 73.5133 52.7619 73.5398C52.5597 73.563 52.3957 73.5829 52.2697 73.5994C51.9648 73.6392 51.6797 73.7038 51.4146 73.7933C51.1528 73.8795 50.9406 74.0104 50.7782 74.1861C50.6191 74.3584 50.5396 74.5937 50.5396 74.892C50.5396 75.2997 50.6904 75.608 50.992 75.8168C51.2969 76.0223 51.6831 76.125 52.1504 76.125ZM58.7862 66.8182V77H57.6129V66.8182H58.7862ZM61.6909 79.8636C61.492 79.8636 61.3147 79.8471 61.1589 79.8139C61.0031 79.7841 60.8954 79.7543 60.8358 79.7244L61.1341 78.6903C61.4191 78.7633 61.671 78.7898 61.8897 78.7699C62.1085 78.75 62.3024 78.6522 62.4714 78.4766C62.6438 78.3042 62.8012 78.0241 62.9437 77.6364L63.1625 77.0398L60.3386 69.3636H61.6113L63.7193 75.4489H63.7988L65.9068 69.3636H67.1795L63.938 78.1136C63.7922 78.508 63.6116 78.8345 63.3961 79.093C63.1807 79.3549 62.9305 79.5488 62.6454 79.6747C62.3637 79.8007 62.0455 79.8636 61.6909 79.8636ZM72.0492 69.3636V70.358H68.0918V69.3636H72.0492ZM69.2452 67.5341H70.4185V74.8125C70.4185 75.1439 70.4666 75.3925 70.5627 75.5582C70.6621 75.7206 70.7881 75.83 70.9405 75.8864C71.0963 75.9394 71.2604 75.9659 71.4327 75.9659C71.562 75.9659 71.668 75.9593 71.7509 75.946C71.8337 75.9295 71.9 75.9162 71.9498 75.9062L72.1884 76.9602C72.1088 76.9901 71.9978 77.0199 71.8553 77.0497C71.7128 77.0829 71.5321 77.0994 71.3134 77.0994C70.9819 77.0994 70.6571 77.0282 70.339 76.8857C70.0241 76.7431 69.7623 76.526 69.5534 76.2344C69.348 75.9427 69.2452 75.5748 69.2452 75.1307V67.5341ZM73.8141 77V69.3636H74.9874V77H73.8141ZM74.4107 68.0909C74.182 68.0909 73.9848 68.013 73.8191 67.8572C73.6567 67.7015 73.5755 67.5142 73.5755 67.2955C73.5755 67.0767 73.6567 66.8894 73.8191 66.7337C73.9848 66.5779 74.182 66.5 74.4107 66.5C74.6394 66.5 74.8349 66.5779 74.9973 66.7337C75.1631 66.8894 75.2459 67.0767 75.2459 67.2955C75.2459 67.5142 75.1631 67.7015 74.9973 67.8572C74.8349 68.013 74.6394 68.0909 74.4107 68.0909ZM80.2386 77.1591C79.5227 77.1591 78.9063 76.9901 78.3892 76.652C77.8722 76.3139 77.4744 75.8482 77.196 75.255C76.9176 74.6617 76.7784 73.9839 76.7784 73.2216C76.7784 72.446 76.9209 71.7616 77.206 71.1683C77.4943 70.5717 77.8954 70.1061 78.4091 69.7713C78.9261 69.4332 79.5294 69.2642 80.2188 69.2642C80.7557 69.2642 81.2396 69.3636 81.6705 69.5625C82.1013 69.7614 82.4543 70.0398 82.7294 70.3977C83.0045 70.7557 83.1752 71.1733 83.2415 71.6506H82.0682C81.9787 71.3026 81.7798 70.9943 81.4716 70.7259C81.1667 70.4541 80.7557 70.3182 80.2386 70.3182C79.7813 70.3182 79.3802 70.4375 79.0355 70.6761C78.6941 70.9115 78.4273 71.2446 78.2351 71.6754C78.0462 72.103 77.9517 72.6051 77.9517 73.1818C77.9517 73.7718 78.0445 74.2855 78.2301 74.723C78.419 75.1605 78.6842 75.5002 79.0256 75.7422C79.3703 75.9841 79.7746 76.1051 80.2386 76.1051C80.5436 76.1051 80.8203 76.0521 81.0689 75.946C81.3175 75.84 81.5279 75.6875 81.7003 75.4886C81.8726 75.2898 81.9953 75.0511 82.0682 74.7727H83.2415C83.1752 75.2235 83.0111 75.6295 82.7493 75.9908C82.4908 76.3487 82.1477 76.6338 81.7202 76.8459C81.2959 77.0547 80.8021 77.1591 80.2386 77.1591ZM90.3658 71.0739L89.3118 71.3722C89.2455 71.1965 89.1477 71.0258 89.0185 70.8601C88.8925 70.6911 88.7202 70.5518 88.5014 70.4425C88.2827 70.3331 88.0026 70.2784 87.6612 70.2784C87.1939 70.2784 86.8045 70.3861 86.4929 70.6016C86.1847 70.8137 86.0305 71.0838 86.0305 71.4119C86.0305 71.7036 86.1366 71.9339 86.3487 72.103C86.5608 72.272 86.8923 72.4129 87.343 72.5256L88.4766 72.804C89.1593 72.9697 89.6681 73.2232 90.0028 73.5646C90.3376 73.9027 90.505 74.3385 90.505 74.8722C90.505 75.3097 90.379 75.7008 90.1271 76.0455C89.8786 76.3902 89.5305 76.6619 89.0831 76.8608C88.6357 77.0597 88.1153 77.1591 87.522 77.1591C86.7431 77.1591 86.0985 76.9901 85.5881 76.652C85.0777 76.3139 84.7545 75.8201 84.6186 75.1705L85.7322 74.892C85.8383 75.303 86.0388 75.6113 86.3338 75.8168C86.6321 76.0223 87.0215 76.125 87.5021 76.125C88.049 76.125 88.4832 76.009 88.8047 75.777C89.1295 75.5417 89.2919 75.2599 89.2919 74.9318C89.2919 74.6667 89.1991 74.4446 89.0135 74.2656C88.8279 74.0833 88.5429 73.9474 88.1584 73.858L86.8857 73.5597C86.1863 73.3939 85.6726 73.1371 85.3445 72.7891C85.0196 72.4377 84.8572 71.9986 84.8572 71.4716C84.8572 71.0407 84.9782 70.6596 85.2202 70.3281C85.4654 69.9967 85.7985 69.7365 86.2195 69.5476C86.6437 69.3587 87.1243 69.2642 87.6612 69.2642C88.4169 69.2642 89.0102 69.4299 89.4411 69.7614C89.8752 70.0928 90.1835 70.5303 90.3658 71.0739ZM97.6007 66.8182V77H96.3677V66.8182H97.6007ZM101.087 72.4062V77H99.9137V69.3636H101.047V70.5568H101.147C101.326 70.169 101.597 69.8575 101.962 69.6222C102.327 69.3835 102.797 69.2642 103.374 69.2642C103.891 69.2642 104.343 69.3703 104.731 69.5824C105.119 69.7912 105.421 70.1094 105.636 70.5369C105.851 70.9612 105.959 71.4981 105.959 72.1477V77H104.786V72.2273C104.786 71.6274 104.63 71.16 104.319 70.8253C104.007 70.4872 103.579 70.3182 103.036 70.3182C102.661 70.3182 102.327 70.3994 102.032 70.5618C101.74 70.7242 101.51 70.9612 101.341 71.2727C101.172 71.5843 101.087 71.9621 101.087 72.4062ZM111.504 69.3636V70.358H107.387V69.3636H111.504ZM108.62 77V68.3097C108.62 67.8722 108.723 67.5076 108.928 67.2159C109.134 66.9242 109.401 66.7055 109.729 66.5597C110.057 66.4138 110.403 66.3409 110.768 66.3409C111.056 66.3409 111.292 66.3641 111.474 66.4105C111.656 66.4569 111.792 66.5 111.882 66.5398L111.544 67.554C111.484 67.5341 111.401 67.5092 111.295 67.4794C111.192 67.4496 111.056 67.4347 110.887 67.4347C110.499 67.4347 110.219 67.5324 110.047 67.728C109.878 67.9235 109.794 68.2102 109.794 68.5881V77H108.62ZM115.936 77.1591C115.247 77.1591 114.642 76.995 114.121 76.6669C113.604 76.3388 113.2 75.8797 112.908 75.2898C112.62 74.6998 112.476 74.0104 112.476 73.2216C112.476 72.4261 112.62 71.7318 112.908 71.1385C113.2 70.5452 113.604 70.0845 114.121 69.7564C114.642 69.4283 115.247 69.2642 115.936 69.2642C116.625 69.2642 117.229 69.4283 117.746 69.7564C118.266 70.0845 118.67 70.5452 118.959 71.1385C119.25 71.7318 119.396 72.4261 119.396 73.2216C119.396 74.0104 119.25 74.6998 118.959 75.2898C118.67 75.8797 118.266 76.3388 117.746 76.6669C117.229 76.995 116.625 77.1591 115.936 77.1591ZM115.936 76.1051C116.46 76.1051 116.89 75.9709 117.229 75.7024C117.567 75.4339 117.817 75.081 117.979 74.6435C118.142 74.206 118.223 73.732 118.223 73.2216C118.223 72.7112 118.142 72.2356 117.979 71.7947C117.817 71.3539 117.567 70.9976 117.229 70.7259C116.89 70.4541 116.46 70.3182 115.936 70.3182C115.412 70.3182 114.981 70.4541 114.643 70.7259C114.305 70.9976 114.055 71.3539 113.893 71.7947C113.73 72.2356 113.649 72.7112 113.649 73.2216C113.649 73.732 113.73 74.206 113.893 74.6435C114.055 75.081 114.305 75.4339 114.643 75.7024C114.981 75.9709 115.412 76.1051 115.936 76.1051ZM121.187 77V69.3636H122.321V70.517H122.4C122.539 70.1392 122.791 69.8326 123.156 69.5973C123.52 69.362 123.931 69.2443 124.389 69.2443C124.475 69.2443 124.583 69.246 124.712 69.2493C124.841 69.2526 124.939 69.2576 125.005 69.2642V70.4574C124.966 70.4474 124.874 70.4325 124.732 70.4126C124.593 70.3894 124.445 70.3778 124.289 70.3778C123.918 70.3778 123.587 70.4557 123.295 70.6115C123.007 70.764 122.778 70.9761 122.609 71.2479C122.443 71.5163 122.36 71.8229 122.36 72.1676V77H121.187ZM126.396 77V69.3636H127.53V70.5568H127.629C127.788 70.1491 128.045 69.8326 128.4 69.6072C128.754 69.3786 129.18 69.2642 129.677 69.2642C130.181 69.2642 130.6 69.3786 130.935 69.6072C131.273 69.8326 131.537 70.1491 131.726 70.5568H131.805C132.001 70.1624 132.294 69.8492 132.685 69.6172C133.076 69.3819 133.545 69.2642 134.092 69.2642C134.775 69.2642 135.333 69.478 135.768 69.9055C136.202 70.3298 136.419 70.991 136.419 71.8892V77H135.246V71.8892C135.246 71.3258 135.091 70.9231 134.783 70.6811C134.475 70.4392 134.112 70.3182 133.694 70.3182C133.157 70.3182 132.742 70.4806 132.447 70.8054C132.152 71.1269 132.004 71.5346 132.004 72.0284V77H130.811V71.7699C130.811 71.3357 130.67 70.986 130.388 70.7209C130.107 70.4524 129.744 70.3182 129.3 70.3182C128.995 70.3182 128.71 70.3994 128.444 70.5618C128.183 70.7242 127.97 70.9496 127.808 71.2379C127.649 71.523 127.569 71.8527 127.569 72.2273V77H126.396ZM140.811 77.179C140.327 77.179 139.888 77.0878 139.494 76.9055C139.099 76.7199 138.786 76.4531 138.554 76.1051C138.322 75.7538 138.206 75.3295 138.206 74.8324C138.206 74.3949 138.292 74.0402 138.465 73.7685C138.637 73.4934 138.867 73.2779 139.156 73.1222C139.444 72.9664 139.762 72.8504 140.11 72.7741C140.462 72.6946 140.815 72.6316 141.169 72.5852C141.633 72.5256 142.009 72.4808 142.298 72.451C142.589 72.4179 142.802 72.3632 142.934 72.2869C143.07 72.2107 143.138 72.0781 143.138 71.8892V71.8494C143.138 71.3589 143.004 70.9777 142.735 70.706C142.47 70.4342 142.067 70.2983 141.527 70.2983C140.967 70.2983 140.528 70.4209 140.21 70.6662C139.892 70.9115 139.668 71.1733 139.539 71.4517L138.425 71.054C138.624 70.59 138.889 70.2287 139.22 69.9702C139.555 69.7083 139.92 69.526 140.314 69.4233C140.712 69.3172 141.103 69.2642 141.487 69.2642C141.733 69.2642 142.014 69.294 142.333 69.3537C142.654 69.41 142.964 69.5277 143.262 69.7067C143.564 69.8857 143.814 70.1558 144.013 70.517C144.212 70.8783 144.311 71.3622 144.311 71.9688V77H143.138V75.9659H143.078C142.999 76.1316 142.866 76.3089 142.681 76.4979C142.495 76.6868 142.248 76.8475 141.94 76.9801C141.632 77.1127 141.255 77.179 140.811 77.179ZM140.99 76.125C141.454 76.125 141.845 76.0339 142.164 75.8516C142.485 75.6693 142.727 75.4339 142.889 75.1456C143.055 74.8572 143.138 74.554 143.138 74.2358V73.1619C143.088 73.2216 142.979 73.2763 142.81 73.326C142.644 73.3724 142.452 73.4138 142.233 73.4503C142.018 73.4834 141.807 73.5133 141.602 73.5398C141.4 73.563 141.235 73.5829 141.11 73.5994C140.805 73.6392 140.52 73.7038 140.254 73.7933C139.993 73.8795 139.78 74.0104 139.618 74.1861C139.459 74.3584 139.379 74.5937 139.379 74.892C139.379 75.2997 139.53 75.608 139.832 75.8168C140.137 76.0223 140.523 76.125 140.99 76.125ZM149.774 69.3636V70.358H145.816V69.3636H149.774ZM146.97 67.5341H148.143V74.8125C148.143 75.1439 148.191 75.3925 148.287 75.5582C148.387 75.7206 148.513 75.83 148.665 75.8864C148.821 75.9394 148.985 75.9659 149.157 75.9659C149.287 75.9659 149.393 75.9593 149.475 75.946C149.558 75.9295 149.625 75.9162 149.674 75.9062L149.913 76.9602C149.833 76.9901 149.722 77.0199 149.58 77.0497C149.437 77.0829 149.257 77.0994 149.038 77.0994C148.707 77.0994 148.382 77.0282 148.064 76.8857C147.749 76.7431 147.487 76.526 147.278 76.2344C147.073 75.9427 146.97 75.5748 146.97 75.1307V67.5341ZM151.539 77V69.3636H152.712V77H151.539ZM152.135 68.0909C151.907 68.0909 151.709 68.013 151.544 67.8572C151.381 67.7015 151.3 67.5142 151.3 67.2955C151.3 67.0767 151.381 66.8894 151.544 66.7337C151.709 66.5779 151.907 66.5 152.135 66.5C152.364 66.5 152.56 66.5779 152.722 66.7337C152.888 66.8894 152.971 67.0767 152.971 67.2955C152.971 67.5142 152.888 67.7015 152.722 67.8572C152.56 68.013 152.364 68.0909 152.135 68.0909ZM157.963 77.1591C157.274 77.1591 156.669 76.995 156.149 76.6669C155.632 76.3388 155.227 75.8797 154.936 75.2898C154.647 74.6998 154.503 74.0104 154.503 73.2216C154.503 72.4261 154.647 71.7318 154.936 71.1385C155.227 70.5452 155.632 70.0845 156.149 69.7564C156.669 69.4283 157.274 69.2642 157.963 69.2642C158.653 69.2642 159.256 69.4283 159.773 69.7564C160.293 70.0845 160.698 70.5452 160.986 71.1385C161.278 71.7318 161.423 72.4261 161.423 73.2216C161.423 74.0104 161.278 74.6998 160.986 75.2898C160.698 75.8797 160.293 76.3388 159.773 76.6669C159.256 76.995 158.653 77.1591 157.963 77.1591ZM157.963 76.1051C158.487 76.1051 158.918 75.9709 159.256 75.7024C159.594 75.4339 159.844 75.081 160.007 74.6435C160.169 74.206 160.25 73.732 160.25 73.2216C160.25 72.7112 160.169 72.2356 160.007 71.7947C159.844 71.3539 159.594 70.9976 159.256 70.7259C158.918 70.4541 158.487 70.3182 157.963 70.3182C157.44 70.3182 157.009 70.4541 156.671 70.7259C156.333 70.9976 156.082 71.3539 155.92 71.7947C155.758 72.2356 155.676 72.7112 155.676 73.2216C155.676 73.732 155.758 74.206 155.92 74.6435C156.082 75.081 156.333 75.4339 156.671 75.7024C157.009 75.9709 157.44 76.1051 157.963 76.1051ZM164.388 72.4062V77H163.214V69.3636H164.348V70.5568H164.447C164.626 70.169 164.898 69.8575 165.263 69.6222C165.627 69.3835 166.098 69.2642 166.675 69.2642C167.192 69.2642 167.644 69.3703 168.032 69.5824C168.42 69.7912 168.721 70.1094 168.937 70.5369C169.152 70.9612 169.26 71.4981 169.26 72.1477V77H168.087V72.2273C168.087 71.6274 167.931 71.16 167.619 70.8253C167.308 70.4872 166.88 70.3182 166.337 70.3182C165.962 70.3182 165.627 70.3994 165.332 70.5618C165.041 70.7242 164.81 70.9612 164.641 71.2727C164.472 71.5843 164.388 71.9621 164.388 72.4062Z" fill="#1C1C1C"/>
<path d="M44 231.216V234.041H35.2727V231.126C35.2727 230.271 35.4474 229.537 35.7969 228.923C36.1435 228.31 36.642 227.839 37.2926 227.513C37.9403 227.183 38.7173 227.018 39.6236 227.018C40.5327 227.018 41.3139 227.185 41.9673 227.517C42.6207 227.847 43.1236 228.324 43.4759 228.949C43.8253 229.574 44 230.33 44 231.216ZM42.8494 232.724V231.288C42.8494 230.624 42.7244 230.071 42.4744 229.631C42.2216 229.19 41.8565 228.861 41.3793 228.642C40.8991 228.423 40.3139 228.314 39.6236 228.314C38.9389 228.314 38.358 228.423 37.8807 228.642C37.4034 228.858 37.0412 229.18 36.794 229.609C36.5469 230.038 36.4233 230.571 36.4233 231.207V232.724H42.8494ZM41.2855 221.337H37.4545V220.059H44V221.311H42.8665V221.38C43.2159 221.53 43.5071 221.772 43.7401 222.104C43.9702 222.434 44.0852 222.844 44.0852 223.336C44.0852 223.756 43.9929 224.128 43.8082 224.452C43.6207 224.773 43.3438 225.026 42.9773 225.211C42.6108 225.392 42.1577 225.483 41.6179 225.483H37.4545V224.209H41.4645C41.9105 224.209 42.2656 224.086 42.5298 223.838C42.794 223.591 42.9261 223.27 42.9261 222.875C42.9261 222.637 42.8665 222.4 42.7472 222.164C42.6278 221.925 42.4474 221.728 42.206 221.571C41.9645 221.412 41.6577 221.334 41.2855 221.337ZM44 218.347H37.4545V217.124H38.5199V217.043C38.1591 216.906 37.8778 216.683 37.6761 216.374C37.4716 216.064 37.3693 215.693 37.3693 215.261C37.3693 214.824 37.4716 214.457 37.6761 214.162C37.8807 213.864 38.1619 213.643 38.5199 213.501V213.433C38.1705 213.277 37.892 213.028 37.6847 212.688C37.4744 212.347 37.3693 211.94 37.3693 211.469C37.3693 210.875 37.5554 210.391 37.9276 210.016C38.2997 209.638 38.8608 209.449 39.6108 209.449H44V210.723H39.7301C39.2869 210.723 38.9659 210.844 38.767 211.085C38.5682 211.327 38.4688 211.615 38.4688 211.95C38.4688 212.365 38.5966 212.688 38.8523 212.918C39.1051 213.148 39.4304 213.263 39.8281 213.263H44V214.533H39.6491C39.294 214.533 39.0085 214.643 38.7926 214.865C38.5767 215.087 38.4688 215.375 38.4688 215.73C38.4688 215.972 38.5327 216.195 38.6605 216.399C38.7855 216.601 38.9602 216.764 39.1847 216.889C39.4091 217.011 39.669 217.072 39.9645 217.072H44V218.347ZM44 207.741H37.4545V206.518H38.5199V206.437C38.1591 206.301 37.8778 206.078 37.6761 205.768C37.4716 205.458 37.3693 205.088 37.3693 204.656C37.3693 204.218 37.4716 203.852 37.6761 203.556C37.8807 203.258 38.1619 203.038 38.5199 202.896V202.828C38.1705 202.672 37.892 202.423 37.6847 202.082C37.4744 201.741 37.3693 201.335 37.3693 200.863C37.3693 200.27 37.5554 199.785 37.9276 199.41C38.2997 199.032 38.8608 198.843 39.6108 198.843H44V200.118H39.7301C39.2869 200.118 38.9659 200.238 38.767 200.48C38.5682 200.721 38.4688 201.01 38.4688 201.345C38.4688 201.76 38.5966 202.082 38.8523 202.312C39.1051 202.542 39.4304 202.657 39.8281 202.657H44V203.927H39.6491C39.294 203.927 39.0085 204.038 38.7926 204.26C38.5767 204.481 38.4688 204.77 38.4688 205.125C38.4688 205.366 38.5327 205.589 38.6605 205.794C38.7855 205.995 38.9602 206.159 39.1847 206.284C39.4091 206.406 39.669 206.467 39.9645 206.467H44V207.741ZM46.4545 196.565C46.4545 196.755 46.4389 196.928 46.4077 197.085C46.3793 197.241 46.348 197.357 46.3139 197.434L45.2699 197.127C45.3324 196.894 45.3594 196.687 45.3509 196.505C45.3423 196.323 45.2741 196.163 45.1463 196.023C45.0185 195.881 44.8097 195.756 44.5199 195.648L44.0852 195.491L37.4545 197.886V196.522L42.5341 194.864V194.796L37.4545 193.138V191.771L44.8736 194.468C45.2145 194.593 45.5028 194.752 45.7386 194.945C45.9773 195.138 46.1563 195.369 46.2756 195.636C46.3949 195.903 46.4545 196.212 46.4545 196.565ZM36.4062 187.725H35.2727V180.971H36.4062V183.694H44V185.007H36.4062V187.725ZM44.1321 177.709C44.1321 178.354 43.9943 178.909 43.7188 179.375C43.4403 179.838 43.0497 180.196 42.5469 180.449C42.0412 180.699 41.4489 180.824 40.7699 180.824C40.0994 180.824 39.5085 180.699 38.9972 180.449C38.4858 180.196 38.0866 179.844 37.7997 179.392C37.5128 178.938 37.3693 178.407 37.3693 177.799C37.3693 177.429 37.4304 177.071 37.5526 176.725C37.6747 176.378 37.8665 176.067 38.1278 175.792C38.3892 175.516 38.7287 175.299 39.1463 175.14C39.5611 174.98 40.0653 174.901 40.6591 174.901H41.1108V180.104H40.1562V176.15C39.821 176.15 39.5241 176.218 39.2656 176.354C39.0043 176.49 38.7983 176.682 38.6477 176.929C38.4972 177.174 38.4219 177.461 38.4219 177.79C38.4219 178.148 38.5099 178.461 38.6861 178.728C38.8594 178.992 39.0866 179.196 39.3679 179.341C39.6463 179.483 39.9489 179.554 40.2756 179.554H41.0213C41.4588 179.554 41.831 179.478 42.1378 179.324C42.4446 179.168 42.679 178.951 42.8409 178.672C43 178.394 43.0795 178.069 43.0795 177.696C43.0795 177.455 43.0455 177.235 42.9773 177.036C42.9062 176.837 42.8011 176.665 42.6619 176.52C42.5227 176.375 42.3509 176.265 42.1463 176.188L42.3636 174.982C42.7187 175.078 43.0298 175.252 43.2969 175.502C43.5611 175.749 43.767 176.06 43.9148 176.435C44.0597 176.807 44.1321 177.232 44.1321 177.709ZM37.4545 172.634L40.0028 171.189L37.4545 169.732V168.338L40.7273 170.38L44 168.321V169.715L41.554 171.189L44 172.659V174.057L40.7273 172.02L37.4545 174.032V172.634ZM37.4545 163.975H38.4773V167.55H37.4545V163.975ZM35.8864 166.591V165.317H42.0781C42.3253 165.317 42.5114 165.28 42.6364 165.206C42.7585 165.132 42.8423 165.037 42.8878 164.921C42.9304 164.801 42.9517 164.672 42.9517 164.533C42.9517 164.431 42.9446 164.341 42.9304 164.265C42.9162 164.188 42.9048 164.128 42.8963 164.086L43.9489 163.855C43.9773 163.929 44.0057 164.034 44.0341 164.171C44.0653 164.307 44.0824 164.478 44.0852 164.682C44.0909 165.017 44.0312 165.33 43.9062 165.62C43.7812 165.909 43.5881 166.144 43.3267 166.323C43.0653 166.502 42.7372 166.591 42.3423 166.591H35.8864Z" fill="#882EFD"/>
<path d="M390.742 378L388.321 369.273H389.706L391.407 376.031H391.488L393.256 369.273H394.628L396.397 376.036H396.478L398.174 369.273H399.563L397.138 378H395.813L393.976 371.463H393.908L392.071 378H390.742ZM402.838 378.132C402.193 378.132 401.637 377.994 401.172 377.719C400.708 377.44 400.35 377.05 400.098 376.547C399.848 376.041 399.723 375.449 399.723 374.77C399.723 374.099 399.848 373.509 400.098 372.997C400.35 372.486 400.703 372.087 401.154 371.8C401.609 371.513 402.14 371.369 402.748 371.369C403.118 371.369 403.475 371.43 403.822 371.553C404.169 371.675 404.48 371.866 404.755 372.128C405.031 372.389 405.248 372.729 405.407 373.146C405.566 373.561 405.646 374.065 405.646 374.659V375.111H400.443V374.156H404.397C404.397 373.821 404.329 373.524 404.193 373.266C404.056 373.004 403.865 372.798 403.618 372.648C403.373 372.497 403.086 372.422 402.757 372.422C402.399 372.422 402.086 372.51 401.819 372.686C401.555 372.859 401.35 373.087 401.206 373.368C401.064 373.646 400.993 373.949 400.993 374.276V375.021C400.993 375.459 401.069 375.831 401.223 376.138C401.379 376.445 401.596 376.679 401.875 376.841C402.153 377 402.478 377.08 402.85 377.08C403.092 377.08 403.312 377.045 403.511 376.977C403.71 376.906 403.882 376.801 404.027 376.662C404.172 376.523 404.282 376.351 404.359 376.146L405.565 376.364C405.468 376.719 405.295 377.03 405.045 377.297C404.798 377.561 404.487 377.767 404.112 377.915C403.74 378.06 403.315 378.132 402.838 378.132ZM409.881 378.132C409.236 378.132 408.68 377.994 408.214 377.719C407.751 377.44 407.393 377.05 407.141 376.547C406.891 376.041 406.766 375.449 406.766 374.77C406.766 374.099 406.891 373.509 407.141 372.997C407.393 372.486 407.746 372.087 408.197 371.8C408.652 371.513 409.183 371.369 409.791 371.369C410.161 371.369 410.518 371.43 410.865 371.553C411.212 371.675 411.523 371.866 411.798 372.128C412.074 372.389 412.291 372.729 412.45 373.146C412.609 373.561 412.689 374.065 412.689 374.659V375.111H407.486V374.156H411.44C411.44 373.821 411.372 373.524 411.236 373.266C411.099 373.004 410.908 372.798 410.661 372.648C410.416 372.497 410.129 372.422 409.8 372.422C409.442 372.422 409.129 372.51 408.862 372.686C408.598 372.859 408.393 373.087 408.249 373.368C408.107 373.646 408.036 373.949 408.036 374.276V375.021C408.036 375.459 408.112 375.831 408.266 376.138C408.422 376.445 408.639 376.679 408.918 376.841C409.196 377 409.521 377.08 409.893 377.08C410.135 377.08 410.355 377.045 410.554 376.977C410.753 376.906 410.925 376.801 411.07 376.662C411.214 376.523 411.325 376.351 411.402 376.146L412.608 376.364C412.511 376.719 412.338 377.03 412.088 377.297C411.841 377.561 411.53 377.767 411.155 377.915C410.783 378.06 410.358 378.132 409.881 378.132ZM415.275 375.78L415.266 374.224H415.488L418.096 371.455H419.621L416.647 374.608H416.446L415.275 375.78ZM414.103 378V369.273H415.377V378H414.103ZM418.236 378L415.892 374.889L416.77 373.999L419.8 378H418.236Z" fill="#882EFD"/>
<path d="M507.375 53H504.233V42.8182H507.514C508.502 42.8182 509.347 43.022 510.05 43.4297C510.752 43.834 511.291 44.4157 511.665 45.1747C512.04 45.9304 512.227 46.8352 512.227 47.8892C512.227 48.9498 512.038 49.8629 511.661 50.6286C511.283 51.3909 510.732 51.9775 510.01 52.3885C509.287 52.7962 508.409 53 507.375 53ZM505.466 51.9062H507.295C508.137 51.9062 508.835 51.7438 509.388 51.419C509.942 51.0942 510.355 50.6319 510.626 50.032C510.898 49.4321 511.034 48.7178 511.034 47.8892C511.034 47.0672 510.9 46.3596 510.631 45.7663C510.363 45.1697 509.962 44.7124 509.428 44.3942C508.895 44.0727 508.23 43.9119 507.435 43.9119H505.466V51.9062ZM518.949 49.8778V45.3636H520.122V53H518.949V51.7074H518.869C518.69 52.0952 518.412 52.425 518.034 52.6967C517.656 52.9652 517.179 53.0994 516.602 53.0994C516.125 53.0994 515.701 52.995 515.33 52.7862C514.958 52.5741 514.667 52.2559 514.455 51.8317C514.242 51.4041 514.136 50.8655 514.136 50.2159V45.3636H515.31V50.1364C515.31 50.6932 515.465 51.1373 515.777 51.4688C516.092 51.8002 516.493 51.9659 516.98 51.9659C517.272 51.9659 517.568 51.8913 517.87 51.7422C518.175 51.593 518.43 51.3643 518.636 51.0561C518.844 50.7479 518.949 50.3551 518.949 49.8778ZM522.271 53V45.3636H523.405V46.5568H523.504C523.663 46.1491 523.92 45.8326 524.275 45.6072C524.629 45.3786 525.055 45.2642 525.552 45.2642C526.056 45.2642 526.475 45.3786 526.81 45.6072C527.148 45.8326 527.412 46.1491 527.601 46.5568H527.68C527.876 46.1624 528.169 45.8492 528.56 45.6172C528.951 45.3819 529.42 45.2642 529.967 45.2642C530.65 45.2642 531.208 45.478 531.643 45.9055C532.077 46.3298 532.294 46.991 532.294 47.8892V53H531.121V47.8892C531.121 47.3258 530.966 46.9231 530.658 46.6811C530.35 46.4392 529.987 46.3182 529.569 46.3182C529.032 46.3182 528.617 46.4806 528.322 46.8054C528.027 47.1269 527.879 47.5346 527.879 48.0284V53H526.686V47.7699C526.686 47.3357 526.545 46.986 526.263 46.7209C525.982 46.4524 525.619 46.3182 525.175 46.3182C524.87 46.3182 524.585 46.3994 524.319 46.5618C524.058 46.7242 523.845 46.9496 523.683 47.2379C523.524 47.523 523.444 47.8527 523.444 48.2273V53H522.271ZM534.439 53V45.3636H535.573V46.5568H535.672C535.831 46.1491 536.088 45.8326 536.443 45.6072C536.797 45.3786 537.223 45.2642 537.72 45.2642C538.224 45.2642 538.643 45.3786 538.978 45.6072C539.316 45.8326 539.58 46.1491 539.769 46.5568H539.848C540.044 46.1624 540.337 45.8492 540.728 45.6172C541.119 45.3819 541.588 45.2642 542.135 45.2642C542.818 45.2642 543.376 45.478 543.811 45.9055C544.245 46.3298 544.462 46.991 544.462 47.8892V53H543.289V47.8892C543.289 47.3258 543.134 46.9231 542.826 46.6811C542.518 46.4392 542.155 46.3182 541.737 46.3182C541.2 46.3182 540.785 46.4806 540.49 46.8054C540.195 47.1269 540.047 47.5346 540.047 48.0284V53H538.854V47.7699C538.854 47.3357 538.713 46.986 538.431 46.7209C538.15 46.4524 537.787 46.3182 537.343 46.3182C537.038 46.3182 536.753 46.3994 536.487 46.5618C536.226 46.7242 536.013 46.9496 535.851 47.2379C535.692 47.523 535.612 47.8527 535.612 48.2273V53H534.439ZM547.089 55.8636C546.89 55.8636 546.713 55.8471 546.557 55.8139C546.402 55.7841 546.294 55.7543 546.234 55.7244L546.532 54.6903C546.818 54.7633 547.069 54.7898 547.288 54.7699C547.507 54.75 547.701 54.6522 547.87 54.4766C548.042 54.3042 548.2 54.0241 548.342 53.6364L548.561 53.0398L545.737 45.3636H547.01L549.118 51.4489H549.197L551.305 45.3636H552.578L549.336 54.1136C549.191 54.508 549.01 54.8345 548.795 55.093C548.579 55.3549 548.329 55.5488 548.044 55.6747C547.762 55.8007 547.444 55.8636 547.089 55.8636ZM558.044 53V52.1051L561.405 48.4261C561.799 47.9953 562.124 47.6207 562.379 47.3026C562.635 46.9811 562.824 46.6795 562.946 46.3977C563.072 46.1127 563.135 45.8144 563.135 45.5028C563.135 45.1449 563.049 44.835 562.877 44.5732C562.708 44.3113 562.476 44.1091 562.181 43.9666C561.886 43.8241 561.554 43.7528 561.186 43.7528C560.795 43.7528 560.454 43.834 560.162 43.9964C559.874 44.1555 559.65 44.3793 559.491 44.6676C559.335 44.956 559.257 45.294 559.257 45.6818H558.084C558.084 45.0852 558.222 44.5616 558.497 44.1108C558.772 43.66 559.146 43.3087 559.62 43.0568C560.097 42.8049 560.633 42.679 561.226 42.679C561.823 42.679 562.351 42.8049 562.812 43.0568C563.273 43.3087 563.634 43.6484 563.896 44.076C564.158 44.5036 564.289 44.9792 564.289 45.5028C564.289 45.8774 564.221 46.2436 564.085 46.6016C563.952 46.9562 563.72 47.3523 563.389 47.7898C563.061 48.224 562.605 48.7543 562.021 49.3807L559.735 51.8267V51.9062H564.468V53H558.044Z" fill="#1C1C1C"/>
<path d="M69.375 287.139C68.6259 287.139 67.9879 286.935 67.4609 286.528C66.9339 286.117 66.5313 285.522 66.2528 284.743C65.9744 283.961 65.8352 283.016 65.8352 281.909C65.8352 280.809 65.9744 279.869 66.2528 279.09C66.5346 278.308 66.9389 277.711 67.4659 277.3C67.9962 276.886 68.6326 276.679 69.375 276.679C70.1174 276.679 70.7521 276.886 71.2791 277.3C71.8094 277.711 72.2138 278.308 72.4922 279.09C72.7739 279.869 72.9148 280.809 72.9148 281.909C72.9148 283.016 72.7756 283.961 72.4972 284.743C72.2188 285.522 71.8161 286.117 71.2891 286.528C70.7621 286.935 70.1241 287.139 69.375 287.139ZM69.375 286.045C70.1174 286.045 70.6941 285.687 71.1051 284.972C71.5161 284.256 71.7216 283.235 71.7216 281.909C71.7216 281.027 71.6271 280.277 71.4382 279.657C71.2526 279.037 70.9841 278.565 70.6328 278.24C70.2848 277.915 69.8655 277.753 69.375 277.753C68.6392 277.753 68.0642 278.116 67.6499 278.842C67.2356 279.564 67.0284 280.587 67.0284 281.909C67.0284 282.791 67.1212 283.54 67.3068 284.156C67.4924 284.773 67.7592 285.242 68.1072 285.563C68.4586 285.885 68.8812 286.045 69.375 286.045ZM75.3235 287.08C75.0782 287.08 74.8678 286.992 74.6921 286.816C74.5165 286.64 74.4286 286.43 74.4286 286.185C74.4286 285.939 74.5165 285.729 74.6921 285.553C74.8678 285.378 75.0782 285.29 75.3235 285.29C75.5688 285.29 75.7792 285.378 75.9549 285.553C76.1306 285.729 76.2184 285.939 76.2184 286.185C76.2184 286.347 76.177 286.496 76.0941 286.632C76.0146 286.768 75.9068 286.877 75.771 286.96C75.6384 287.04 75.4892 287.08 75.3235 287.08ZM81.2807 287.139C80.6974 287.139 80.1721 287.023 79.7047 286.791C79.2374 286.559 78.8629 286.241 78.5811 285.837C78.2994 285.432 78.1453 284.972 78.1188 284.455H79.312C79.3584 284.915 79.5672 285.296 79.9384 285.598C80.3129 285.896 80.7604 286.045 81.2807 286.045C81.6983 286.045 82.0695 285.948 82.3944 285.752C82.7225 285.557 82.9793 285.288 83.165 284.947C83.3539 284.602 83.4483 284.213 83.4483 283.778C83.4483 283.334 83.3506 282.938 83.155 282.59C82.9628 282.239 82.6976 281.962 82.3596 281.76C82.0215 281.558 81.6354 281.455 81.2012 281.452C80.8896 281.448 80.5698 281.496 80.2417 281.596C79.9135 281.692 79.6434 281.816 79.4313 281.969L78.2779 281.83L78.8944 276.818H84.1841V277.912H79.9284L79.5705 280.915H79.6301C79.839 280.749 80.1008 280.612 80.4157 280.502C80.7305 280.393 81.0587 280.338 81.4 280.338C82.0231 280.338 82.5783 280.487 83.0655 280.786C83.556 281.08 83.9405 281.485 84.2189 281.999C84.5007 282.512 84.6415 283.099 84.6415 283.759C84.6415 284.408 84.4957 284.988 84.204 285.499C83.9157 286.006 83.5179 286.407 83.0108 286.702C82.5037 286.993 81.927 287.139 81.2807 287.139ZM86.7955 287V276.818H88.0284V281.869H88.1477L92.7216 276.818H94.3324L90.0568 281.412L94.3324 287H92.8409L89.3011 282.267L88.0284 283.699V287H86.7955Z" fill="#1C1C1C"/>
<path d="M69.6335 234.818V245H68.4006V236.111H68.3409L65.8551 237.761V236.509L68.4006 234.818H69.6335ZM73.6754 242.216L73.6555 240.764H73.8942L77.2351 237.364H78.6868L75.1271 240.963H75.0277L73.6754 242.216ZM72.5817 245V234.818H73.755V245H72.5817ZM77.4339 245L74.451 241.222L75.2862 240.406L78.9254 245H77.4339Z" fill="#1C1C1C"/>
<path d="M69.6335 192.818V203H68.4006V194.111H68.3409L65.8551 195.761V194.509L68.4006 192.818H69.6335ZM72.8352 203.08C72.59 203.08 72.3795 202.992 72.2038 202.816C72.0282 202.64 71.9403 202.43 71.9403 202.185C71.9403 201.939 72.0282 201.729 72.2038 201.553C72.3795 201.378 72.59 201.29 72.8352 201.29C73.0805 201.29 73.291 201.378 73.4666 201.553C73.6423 201.729 73.7301 201.939 73.7301 202.185C73.7301 202.347 73.6887 202.496 73.6058 202.632C73.5263 202.768 73.4186 202.877 73.2827 202.96C73.1501 203.04 73.0009 203.08 72.8352 203.08ZM78.7924 203.139C78.2091 203.139 77.6838 203.023 77.2164 202.791C76.7491 202.559 76.3746 202.241 76.0929 201.837C75.8111 201.432 75.657 200.972 75.6305 200.455H76.8237C76.8701 200.915 77.0789 201.296 77.4501 201.598C77.8246 201.896 78.2721 202.045 78.7924 202.045C79.21 202.045 79.5813 201.948 79.9061 201.752C80.2342 201.557 80.4911 201.288 80.6767 200.947C80.8656 200.602 80.96 200.213 80.96 199.778C80.96 199.334 80.8623 198.938 80.6667 198.59C80.4745 198.239 80.2093 197.962 79.8713 197.76C79.5332 197.558 79.1471 197.455 78.7129 197.452C78.4013 197.448 78.0815 197.496 77.7534 197.596C77.4252 197.692 77.1551 197.816 76.943 197.969L75.7896 197.83L76.4061 192.818H81.6958V193.912H77.4402L77.0822 196.915H77.1419C77.3507 196.749 77.6125 196.612 77.9274 196.502C78.2422 196.393 78.5704 196.338 78.9118 196.338C79.5349 196.338 80.09 196.487 80.5772 196.786C81.0678 197.08 81.4522 197.485 81.7306 197.999C82.0124 198.512 82.1532 199.099 82.1532 199.759C82.1532 200.408 82.0074 200.988 81.7157 201.499C81.4274 202.006 81.0297 202.407 80.5225 202.702C80.0154 202.993 79.4387 203.139 78.7924 203.139ZM84.3072 203V192.818H85.5401V197.869H85.6594L90.2333 192.818H91.8441L87.5685 197.412L91.8441 203H90.3526L86.8129 198.267L85.5401 199.699V203H84.3072Z" fill="#1C1C1C"/>
<path d="M66.054 161V160.105L69.4148 156.426C69.8092 155.995 70.134 155.621 70.3892 155.303C70.6444 154.981 70.8333 154.679 70.956 154.398C71.0819 154.113 71.1449 153.814 71.1449 153.503C71.1449 153.145 71.0587 152.835 70.8864 152.573C70.7173 152.311 70.4853 152.109 70.1903 151.967C69.8954 151.824 69.5639 151.753 69.196 151.753C68.8049 151.753 68.4635 151.834 68.1719 151.996C67.8835 152.156 67.6598 152.379 67.5007 152.668C67.3449 152.956 67.267 153.294 67.267 153.682H66.0938C66.0938 153.085 66.2313 152.562 66.5064 152.111C66.7815 151.66 67.156 151.309 67.63 151.057C68.1072 150.805 68.6425 150.679 69.2358 150.679C69.8324 150.679 70.361 150.805 70.8217 151.057C71.2824 151.309 71.6437 151.648 71.9055 152.076C72.1674 152.504 72.2983 152.979 72.2983 153.503C72.2983 153.877 72.2304 154.244 72.0945 154.602C71.9619 154.956 71.7299 155.352 71.3984 155.79C71.0703 156.224 70.6146 156.754 70.0312 157.381L67.7443 159.827V159.906H72.4773V161H66.054ZM75.6442 158.216L75.6243 156.764H75.8629L79.2038 153.364H80.6555L77.0959 156.963H76.9964L75.6442 158.216ZM74.5504 161V150.818H75.7237V161H74.5504ZM79.4027 161L76.4197 157.222L77.255 156.406L80.8942 161H79.4027Z" fill="#1C1C1C"/>
<path d="M66.054 119V118.105L69.4148 114.426C69.8092 113.995 70.134 113.621 70.3892 113.303C70.6444 112.981 70.8333 112.679 70.956 112.398C71.0819 112.113 71.1449 111.814 71.1449 111.503C71.1449 111.145 71.0587 110.835 70.8864 110.573C70.7173 110.311 70.4853 110.109 70.1903 109.967C69.8954 109.824 69.5639 109.753 69.196 109.753C68.8049 109.753 68.4635 109.834 68.1719 109.996C67.8835 110.156 67.6598 110.379 67.5007 110.668C67.3449 110.956 67.267 111.294 67.267 111.682H66.0938C66.0938 111.085 66.2313 110.562 66.5064 110.111C66.7815 109.66 67.156 109.309 67.63 109.057C68.1072 108.805 68.6425 108.679 69.2358 108.679C69.8324 108.679 70.361 108.805 70.8217 109.057C71.2824 109.309 71.6437 109.648 71.9055 110.076C72.1674 110.504 72.2983 110.979 72.2983 111.503C72.2983 111.877 72.2304 112.244 72.0945 112.602C71.9619 112.956 71.7299 113.352 71.3984 113.79C71.0703 114.224 70.6146 114.754 70.0312 115.381L67.7443 117.827V117.906H72.4773V119H66.054ZM75.4055 119.08C75.1603 119.08 74.9498 118.992 74.7741 118.816C74.5985 118.64 74.5107 118.43 74.5107 118.185C74.5107 117.939 74.5985 117.729 74.7741 117.553C74.9498 117.378 75.1603 117.29 75.4055 117.29C75.6508 117.29 75.8613 117.378 76.0369 117.553C76.2126 117.729 76.3004 117.939 76.3004 118.185C76.3004 118.347 76.259 118.496 76.1761 118.632C76.0966 118.768 75.9889 118.877 75.853 118.96C75.7204 119.04 75.5713 119.08 75.4055 119.08ZM81.3627 119.139C80.7794 119.139 80.2541 119.023 79.7868 118.791C79.3194 118.559 78.9449 118.241 78.6632 117.837C78.3815 117.432 78.2273 116.972 78.2008 116.455H79.394C79.4404 116.915 79.6492 117.296 80.0204 117.598C80.3949 117.896 80.8424 118.045 81.3627 118.045C81.7804 118.045 82.1516 117.948 82.4764 117.752C82.8045 117.557 83.0614 117.288 83.247 116.947C83.4359 116.602 83.5304 116.213 83.5304 115.778C83.5304 115.334 83.4326 114.938 83.237 114.59C83.0448 114.239 82.7797 113.962 82.4416 113.76C82.1035 113.558 81.7174 113.455 81.2832 113.452C80.9717 113.448 80.6518 113.496 80.3237 113.596C79.9956 113.692 79.7254 113.816 79.5133 113.969L78.3599 113.83L78.9764 108.818H84.2662V109.912H80.0105L79.6525 112.915H79.7122C79.921 112.749 80.1828 112.612 80.4977 112.502C80.8126 112.393 81.1407 112.338 81.4821 112.338C82.1052 112.338 82.6603 112.487 83.1475 112.786C83.6381 113.08 84.0225 113.485 84.301 113.999C84.5827 114.512 84.7235 115.099 84.7235 115.759C84.7235 116.408 84.5777 116.988 84.286 117.499C83.9977 118.006 83.6 118.407 83.0929 118.702C82.5858 118.993 82.0091 119.139 81.3627 119.139ZM87.8121 116.216L87.7923 114.764H88.0309L91.3718 111.364H92.8235L89.2638 114.963H89.1644L87.8121 116.216ZM86.7184 119V108.818H87.8917V119H86.7184ZM91.5707 119L88.5877 115.222L89.4229 114.406L93.0621 119H91.5707Z" fill="#1C1C1C"/>
<path d="M106.073 334.818V345H104.84V336.111H104.78L102.295 337.761V336.509L104.84 334.818H106.073ZM112.322 345.139C111.573 345.139 110.935 344.935 110.408 344.528C109.881 344.117 109.479 343.522 109.2 342.743C108.922 341.961 108.782 341.016 108.782 339.909C108.782 338.809 108.922 337.869 109.2 337.09C109.482 336.308 109.886 335.711 110.413 335.3C110.943 334.886 111.58 334.679 112.322 334.679C113.065 334.679 113.699 334.886 114.226 335.3C114.757 335.711 115.161 336.308 115.439 337.09C115.721 337.869 115.862 338.809 115.862 339.909C115.862 341.016 115.723 341.961 115.444 342.743C115.166 343.522 114.763 344.117 114.236 344.528C113.709 344.935 113.071 345.139 112.322 345.139ZM112.322 344.045C113.065 344.045 113.641 343.687 114.052 342.972C114.463 342.256 114.669 341.235 114.669 339.909C114.669 339.027 114.574 338.277 114.385 337.657C114.2 337.037 113.931 336.565 113.58 336.24C113.232 335.915 112.813 335.753 112.322 335.753C111.586 335.753 111.011 336.116 110.597 336.842C110.183 337.564 109.976 338.587 109.976 339.909C109.976 340.791 110.068 341.54 110.254 342.156C110.44 342.773 110.706 343.242 111.055 343.563C111.406 343.885 111.828 344.045 112.322 344.045ZM125.765 334.818H126.998V342.097C126.998 342.746 126.879 343.298 126.64 343.752C126.402 344.206 126.065 344.551 125.631 344.786C125.197 345.022 124.685 345.139 124.095 345.139C123.538 345.139 123.043 345.038 122.608 344.836C122.174 344.63 121.833 344.339 121.584 343.961C121.336 343.583 121.211 343.134 121.211 342.614H122.425C122.425 342.902 122.496 343.154 122.638 343.369C122.784 343.581 122.983 343.747 123.235 343.866C123.487 343.986 123.773 344.045 124.095 344.045C124.45 344.045 124.751 343.971 125 343.822C125.248 343.673 125.437 343.454 125.567 343.165C125.699 342.874 125.765 342.518 125.765 342.097V334.818ZM134.123 341.878V337.364H135.296V345H134.123V343.707H134.043C133.864 344.095 133.586 344.425 133.208 344.697C132.83 344.965 132.353 345.099 131.776 345.099C131.299 345.099 130.875 344.995 130.503 344.786C130.132 344.574 129.84 344.256 129.628 343.832C129.416 343.404 129.31 342.866 129.31 342.216V337.364H130.483V342.136C130.483 342.693 130.639 343.137 130.951 343.469C131.266 343.8 131.667 343.966 132.154 343.966C132.446 343.966 132.742 343.891 133.044 343.742C133.349 343.593 133.604 343.364 133.809 343.056C134.018 342.748 134.123 342.355 134.123 341.878ZM138.618 340.406V345H137.445V337.364H138.578V338.557H138.678C138.857 338.169 139.129 337.857 139.493 337.622C139.858 337.384 140.328 337.264 140.905 337.264C141.422 337.264 141.875 337.37 142.262 337.582C142.65 337.791 142.952 338.109 143.167 338.537C143.383 338.961 143.49 339.498 143.49 340.148V345H142.317V340.227C142.317 339.627 142.161 339.16 141.85 338.825C141.538 338.487 141.111 338.318 140.567 338.318C140.193 338.318 139.858 338.399 139.563 338.562C139.271 338.724 139.041 338.961 138.872 339.273C138.703 339.584 138.618 339.962 138.618 340.406Z" fill="#1C1C1C"/>
<path d="M200.194 334.818V345H198.961V336.111H198.901L196.416 337.761V336.509L198.961 334.818H200.194ZM206.702 334.818V345H205.469V336.111H205.409L202.923 337.761V336.509L205.469 334.818H206.702ZM217.644 334.818H218.877V342.097C218.877 342.746 218.758 343.298 218.519 343.752C218.281 344.206 217.944 344.551 217.51 344.786C217.076 345.022 216.564 345.139 215.974 345.139C215.417 345.139 214.922 345.038 214.487 344.836C214.053 344.63 213.712 344.339 213.463 343.961C213.215 343.583 213.09 343.134 213.09 342.614H214.303C214.303 342.902 214.375 343.154 214.517 343.369C214.663 343.581 214.862 343.747 215.114 343.866C215.366 343.986 215.652 344.045 215.974 344.045C216.329 344.045 216.63 343.971 216.879 343.822C217.127 343.673 217.316 343.454 217.445 343.165C217.578 342.874 217.644 342.518 217.644 342.097V334.818ZM226.002 341.878V337.364H227.175V345H226.002V343.707H225.922C225.743 344.095 225.465 344.425 225.087 344.697C224.709 344.965 224.232 345.099 223.655 345.099C223.178 345.099 222.753 344.995 222.382 344.786C222.011 344.574 221.719 344.256 221.507 343.832C221.295 343.404 221.189 342.866 221.189 342.216V337.364H222.362V342.136C222.362 342.693 222.518 343.137 222.83 343.469C223.145 343.8 223.546 343.966 224.033 343.966C224.325 343.966 224.621 343.891 224.923 343.742C225.228 343.593 225.483 343.364 225.688 343.056C225.897 342.748 226.002 342.355 226.002 341.878ZM230.497 340.406V345H229.324V337.364H230.457V338.557H230.557C230.736 338.169 231.008 337.857 231.372 337.622C231.737 337.384 232.207 337.264 232.784 337.264C233.301 337.264 233.754 337.37 234.141 337.582C234.529 337.791 234.831 338.109 235.046 338.537C235.262 338.961 235.369 339.498 235.369 340.148V345H234.196V340.227C234.196 339.627 234.04 339.16 233.729 338.825C233.417 338.487 232.99 338.318 232.446 338.318C232.071 338.318 231.737 338.399 231.442 338.562C231.15 338.724 230.92 338.961 230.751 339.273C230.582 339.584 230.497 339.962 230.497 340.406Z" fill="#1C1C1C"/>
<path d="M292.21 334.818V345H290.977V336.111H290.917L288.431 337.761V336.509L290.977 334.818H292.21ZM295.138 345V344.105L298.499 340.426C298.893 339.995 299.218 339.621 299.473 339.303C299.728 338.981 299.917 338.679 300.04 338.398C300.166 338.113 300.229 337.814 300.229 337.503C300.229 337.145 300.143 336.835 299.97 336.573C299.801 336.311 299.569 336.109 299.274 335.967C298.979 335.824 298.648 335.753 298.28 335.753C297.889 335.753 297.548 335.834 297.256 335.996C296.968 336.156 296.744 336.379 296.585 336.668C296.429 336.956 296.351 337.294 296.351 337.682H295.178C295.178 337.085 295.315 336.562 295.59 336.111C295.865 335.66 296.24 335.309 296.714 335.057C297.191 334.805 297.727 334.679 298.32 334.679C298.916 334.679 299.445 334.805 299.906 335.057C300.366 335.309 300.728 335.648 300.99 336.076C301.251 336.504 301.382 336.979 301.382 337.503C301.382 337.877 301.314 338.244 301.178 338.602C301.046 338.956 300.814 339.352 300.482 339.79C300.154 340.224 299.699 340.754 299.115 341.381L296.828 343.827V343.906H301.561V345H295.138ZM311.629 334.818H312.862V342.097C312.862 342.746 312.742 343.298 312.504 343.752C312.265 344.206 311.929 344.551 311.494 344.786C311.06 345.022 310.548 345.139 309.958 345.139C309.401 345.139 308.906 345.038 308.472 344.836C308.038 344.63 307.696 344.339 307.448 343.961C307.199 343.583 307.075 343.134 307.075 342.614H308.288C308.288 342.902 308.359 343.154 308.502 343.369C308.647 343.581 308.846 343.747 309.098 343.866C309.35 343.986 309.637 344.045 309.958 344.045C310.313 344.045 310.615 343.971 310.863 343.822C311.112 343.673 311.301 343.454 311.43 343.165C311.562 342.874 311.629 342.518 311.629 342.097V334.818ZM319.986 341.878V337.364H321.159V345H319.986V343.707H319.906C319.727 344.095 319.449 344.425 319.071 344.697C318.693 344.965 318.216 345.099 317.639 345.099C317.162 345.099 316.738 344.995 316.367 344.786C315.995 344.574 315.704 344.256 315.492 343.832C315.28 343.404 315.173 342.866 315.173 342.216V337.364H316.347V342.136C316.347 342.693 316.503 343.137 316.814 343.469C317.129 343.8 317.53 343.966 318.017 343.966C318.309 343.966 318.606 343.891 318.907 343.742C319.212 343.593 319.467 343.364 319.673 343.056C319.882 342.748 319.986 342.355 319.986 341.878ZM324.482 340.406V345H323.308V337.364H324.442V338.557H324.541C324.72 338.169 324.992 337.857 325.357 337.622C325.721 337.384 326.192 337.264 326.768 337.264C327.286 337.264 327.738 337.37 328.126 337.582C328.513 337.791 328.815 338.109 329.031 338.537C329.246 338.961 329.354 339.498 329.354 340.148V345H328.18V340.227C328.18 339.627 328.025 339.16 327.713 338.825C327.402 338.487 326.974 338.318 326.43 338.318C326.056 338.318 325.721 338.399 325.426 338.562C325.134 338.724 324.904 338.961 324.735 339.273C324.566 339.584 324.482 339.962 324.482 340.406Z" fill="#1C1C1C"/>
<path d="M384.991 334.818V345H383.758V336.111H383.698L381.213 337.761V336.509L383.758 334.818H384.991ZM391.36 345.139C390.703 345.139 390.118 345.027 389.605 344.801C389.094 344.576 388.688 344.263 388.387 343.862C388.088 343.457 387.926 342.988 387.899 342.455H389.152C389.179 342.783 389.291 343.066 389.49 343.305C389.689 343.54 389.949 343.722 390.271 343.852C390.592 343.981 390.949 344.045 391.34 344.045C391.777 344.045 392.165 343.969 392.503 343.817C392.841 343.664 393.106 343.452 393.298 343.18C393.491 342.909 393.587 342.594 393.587 342.236C393.587 341.861 393.494 341.531 393.308 341.246C393.123 340.958 392.851 340.733 392.493 340.57C392.135 340.408 391.698 340.327 391.181 340.327H390.365V339.233H391.181C391.585 339.233 391.94 339.16 392.244 339.014C392.553 338.868 392.793 338.663 392.965 338.398C393.141 338.133 393.229 337.821 393.229 337.463C393.229 337.118 393.153 336.818 393 336.563C392.848 336.308 392.632 336.109 392.354 335.967C392.079 335.824 391.754 335.753 391.379 335.753C391.028 335.753 390.697 335.817 390.385 335.947C390.077 336.073 389.825 336.257 389.629 336.499C389.434 336.737 389.328 337.026 389.311 337.364H388.118C388.138 336.83 388.299 336.363 388.6 335.962C388.902 335.557 389.296 335.242 389.784 335.017C390.274 334.792 390.813 334.679 391.399 334.679C392.029 334.679 392.569 334.807 393.02 335.062C393.471 335.314 393.817 335.647 394.059 336.061C394.301 336.475 394.422 336.923 394.422 337.403C394.422 337.977 394.271 338.466 393.97 338.87C393.671 339.274 393.265 339.554 392.752 339.71V339.79C393.395 339.896 393.897 340.169 394.258 340.61C394.619 341.048 394.8 341.589 394.8 342.236C394.8 342.789 394.649 343.286 394.347 343.727C394.049 344.165 393.642 344.509 393.124 344.761C392.607 345.013 392.019 345.139 391.36 345.139ZM404.847 334.818H406.08V342.097C406.08 342.746 405.961 343.298 405.722 343.752C405.484 344.206 405.147 344.551 404.713 344.786C404.279 345.022 403.767 345.139 403.177 345.139C402.62 345.139 402.125 345.038 401.691 344.836C401.256 344.63 400.915 344.339 400.666 343.961C400.418 343.583 400.294 343.134 400.294 342.614H401.507C401.507 342.902 401.578 343.154 401.72 343.369C401.866 343.581 402.065 343.747 402.317 343.866C402.569 343.986 402.856 344.045 403.177 344.045C403.532 344.045 403.833 343.971 404.082 343.822C404.33 343.673 404.519 343.454 404.649 343.165C404.781 342.874 404.847 342.518 404.847 342.097V334.818ZM413.205 341.878V337.364H414.378V345H413.205V343.707H413.125C412.946 344.095 412.668 344.425 412.29 344.697C411.912 344.965 411.435 345.099 410.858 345.099C410.381 345.099 409.957 344.995 409.585 344.786C409.214 344.574 408.923 344.256 408.71 343.832C408.498 343.404 408.392 342.866 408.392 342.216V337.364H409.566V342.136C409.566 342.693 409.721 343.137 410.033 343.469C410.348 343.8 410.749 343.966 411.236 343.966C411.528 343.966 411.824 343.891 412.126 343.742C412.431 343.593 412.686 343.364 412.892 343.056C413.1 342.748 413.205 342.355 413.205 341.878ZM417.7 340.406V345H416.527V337.364H417.661V338.557H417.76C417.939 338.169 418.211 337.857 418.575 337.622C418.94 337.384 419.411 337.264 419.987 337.264C420.504 337.264 420.957 337.37 421.344 337.582C421.732 337.791 422.034 338.109 422.249 338.537C422.465 338.961 422.572 339.498 422.572 340.148V345H421.399V340.227C421.399 339.627 421.243 339.16 420.932 338.825C420.62 338.487 420.193 338.318 419.649 338.318C419.275 338.318 418.94 338.399 418.645 338.562C418.353 338.724 418.123 338.961 417.954 339.273C417.785 339.584 417.7 339.962 417.7 340.406Z" fill="#1C1C1C"/>
<path d="M477.957 334.818V345H476.724V336.111H476.664L474.178 337.761V336.509L476.724 334.818H477.957ZM480.646 342.912V341.898L485.121 334.818H485.857V336.389H485.359L481.979 341.739V341.818H488.004V342.912H480.646ZM485.439 345V342.604V342.131V334.818H486.612V345H485.439ZM497.882 334.818H499.115V342.097C499.115 342.746 498.995 343.298 498.757 343.752C498.518 344.206 498.182 344.551 497.747 344.786C497.313 345.022 496.801 345.139 496.211 345.139C495.654 345.139 495.159 345.038 494.725 344.836C494.291 344.63 493.949 344.339 493.701 343.961C493.452 343.583 493.328 343.134 493.328 342.614H494.541C494.541 342.902 494.612 343.154 494.755 343.369C494.9 343.581 495.099 343.747 495.351 343.866C495.603 343.986 495.89 344.045 496.211 344.045C496.566 344.045 496.867 343.971 497.116 343.822C497.365 343.673 497.554 343.454 497.683 343.165C497.815 342.874 497.882 342.518 497.882 342.097V334.818ZM506.239 341.878V337.364H507.412V345H506.239V343.707H506.159C505.98 344.095 505.702 344.425 505.324 344.697C504.946 344.965 504.469 345.099 503.892 345.099C503.415 345.099 502.991 344.995 502.62 344.786C502.248 344.574 501.957 344.256 501.745 343.832C501.532 343.404 501.426 342.866 501.426 342.216V337.364H502.6V342.136C502.6 342.693 502.755 343.137 503.067 343.469C503.382 343.8 503.783 343.966 504.27 343.966C504.562 343.966 504.858 343.891 505.16 343.742C505.465 343.593 505.72 343.364 505.926 343.056C506.134 342.748 506.239 342.355 506.239 341.878ZM510.734 340.406V345H509.561V337.364H510.695V338.557H510.794C510.973 338.169 511.245 337.857 511.609 337.622C511.974 337.384 512.445 337.264 513.021 337.264C513.538 337.264 513.991 337.37 514.379 337.582C514.766 337.791 515.068 338.109 515.283 338.537C515.499 338.961 515.607 339.498 515.607 340.148V345H514.433V340.227C514.433 339.627 514.278 339.16 513.966 338.825C513.654 338.487 513.227 338.318 512.683 338.318C512.309 338.318 511.974 338.399 511.679 338.562C511.387 338.724 511.157 338.961 510.988 339.273C510.819 339.584 510.734 339.962 510.734 340.406Z" fill="#1C1C1C"/>
<path d="M571.189 334.818V345H569.956V336.111H569.897L567.411 337.761V336.509L569.956 334.818H571.189ZM577.299 345.139C576.716 345.139 576.191 345.023 575.723 344.791C575.256 344.559 574.881 344.241 574.6 343.837C574.318 343.432 574.164 342.972 574.137 342.455H575.331C575.377 342.915 575.586 343.296 575.957 343.598C576.331 343.896 576.779 344.045 577.299 344.045C577.717 344.045 578.088 343.948 578.413 343.752C578.741 343.557 578.998 343.288 579.184 342.947C579.372 342.602 579.467 342.213 579.467 341.778C579.467 341.334 579.369 340.938 579.174 340.59C578.981 340.239 578.716 339.962 578.378 339.76C578.04 339.558 577.654 339.455 577.22 339.452C576.908 339.448 576.588 339.496 576.26 339.596C575.932 339.692 575.662 339.816 575.45 339.969L574.296 339.83L574.913 334.818H580.203V335.912H575.947L575.589 338.915H575.649C575.858 338.749 576.119 338.612 576.434 338.502C576.749 338.393 577.077 338.338 577.419 338.338C578.042 338.338 578.597 338.487 579.084 338.786C579.575 339.08 579.959 339.485 580.237 339.999C580.519 340.512 580.66 341.099 580.66 341.759C580.66 342.408 580.514 342.988 580.223 343.499C579.934 344.006 579.536 344.407 579.029 344.702C578.522 344.993 577.946 345.139 577.299 345.139ZM590.649 334.818H591.882V342.097C591.882 342.746 591.763 343.298 591.524 343.752C591.286 344.206 590.949 344.551 590.515 344.786C590.081 345.022 589.569 345.139 588.979 345.139C588.422 345.139 587.926 345.038 587.492 344.836C587.058 344.63 586.717 344.339 586.468 343.961C586.22 343.583 586.095 343.134 586.095 342.614H587.308C587.308 342.902 587.38 343.154 587.522 343.369C587.668 343.581 587.867 343.747 588.119 343.866C588.371 343.986 588.657 344.045 588.979 344.045C589.333 344.045 589.635 343.971 589.884 343.822C590.132 343.673 590.321 343.454 590.45 343.165C590.583 342.874 590.649 342.518 590.649 342.097V334.818ZM599.006 341.878V337.364H600.18V345H599.006V343.707H598.927C598.748 344.095 598.47 344.425 598.092 344.697C597.714 344.965 597.237 345.099 596.66 345.099C596.183 345.099 595.758 344.995 595.387 344.786C595.016 344.574 594.724 344.256 594.512 343.832C594.3 343.404 594.194 342.866 594.194 342.216V337.364H595.367V342.136C595.367 342.693 595.523 343.137 595.835 343.469C596.149 343.8 596.551 343.966 597.038 343.966C597.329 343.966 597.626 343.891 597.928 343.742C598.233 343.593 598.488 343.364 598.693 343.056C598.902 342.748 599.006 342.355 599.006 341.878ZM603.502 340.406V345H602.329V337.364H603.462V338.557H603.562C603.741 338.169 604.012 337.857 604.377 337.622C604.742 337.384 605.212 337.264 605.789 337.264C606.306 337.264 606.758 337.37 607.146 337.582C607.534 337.791 607.836 338.109 608.051 338.537C608.266 338.961 608.374 339.498 608.374 340.148V345H607.201V340.227C607.201 339.627 607.045 339.16 606.734 338.825C606.422 338.487 605.994 338.318 605.451 338.318C605.076 338.318 604.742 338.399 604.447 338.562C604.155 338.724 603.925 338.961 603.756 339.273C603.587 339.584 603.502 339.962 603.502 340.406Z" fill="#1C1C1C"/>
<path d="M666.049 334.818V345H664.816V336.111H664.756L662.27 337.761V336.509L664.816 334.818H666.049ZM672.358 345.139C671.94 345.133 671.522 345.053 671.105 344.901C670.687 344.748 670.306 344.491 669.961 344.13C669.617 343.765 669.34 343.273 669.131 342.653C668.922 342.03 668.818 341.248 668.818 340.307C668.818 339.405 668.902 338.607 669.071 337.911C669.24 337.211 669.486 336.623 669.807 336.146C670.129 335.665 670.516 335.3 670.97 335.052C671.428 334.803 671.943 334.679 672.517 334.679C673.087 334.679 673.594 334.793 674.038 335.022C674.485 335.247 674.85 335.562 675.132 335.967C675.413 336.371 675.596 336.837 675.679 337.364H674.465C674.353 336.906 674.134 336.527 673.809 336.225C673.484 335.924 673.054 335.773 672.517 335.773C671.728 335.773 671.106 336.116 670.652 336.802C670.201 337.488 669.974 338.451 669.971 339.69H670.051C670.236 339.409 670.457 339.168 670.712 338.969C670.97 338.767 671.255 338.612 671.567 338.502C671.879 338.393 672.208 338.338 672.556 338.338C673.14 338.338 673.673 338.484 674.157 338.776C674.641 339.064 675.029 339.463 675.321 339.974C675.612 340.481 675.758 341.062 675.758 341.719C675.758 342.348 675.617 342.925 675.335 343.449C675.054 343.969 674.658 344.384 674.147 344.692C673.64 344.997 673.044 345.146 672.358 345.139ZM672.358 344.045C672.775 344.045 673.15 343.941 673.481 343.732C673.816 343.523 674.079 343.243 674.272 342.892C674.467 342.541 674.565 342.15 674.565 341.719C674.565 341.298 674.47 340.915 674.282 340.57C674.096 340.222 673.839 339.946 673.511 339.74C673.186 339.535 672.815 339.432 672.397 339.432C672.082 339.432 671.789 339.495 671.517 339.621C671.246 339.743 671.007 339.912 670.801 340.128C670.599 340.343 670.44 340.59 670.324 340.869C670.208 341.144 670.15 341.434 670.15 341.739C670.15 342.143 670.245 342.521 670.434 342.872C670.626 343.223 670.888 343.507 671.219 343.722C671.554 343.938 671.933 344.045 672.358 344.045ZM681.79 334.818H683.023V342.097C683.023 342.746 682.903 343.298 682.665 343.752C682.426 344.206 682.09 344.551 681.656 344.786C681.221 345.022 680.709 345.139 680.119 345.139C679.563 345.139 679.067 345.038 678.633 344.836C678.199 344.63 677.857 344.339 677.609 343.961C677.36 343.583 677.236 343.134 677.236 342.614H678.449C678.449 342.902 678.52 343.154 678.663 343.369C678.809 343.581 679.007 343.747 679.259 343.866C679.511 343.986 679.798 344.045 680.119 344.045C680.474 344.045 680.776 343.971 681.024 343.822C681.273 343.673 681.462 343.454 681.591 343.165C681.724 342.874 681.79 342.518 681.79 342.097V334.818ZM690.147 341.878V337.364H691.32V345H690.147V343.707H690.068C689.889 344.095 689.61 344.425 689.232 344.697C688.854 344.965 688.377 345.099 687.801 345.099C687.323 345.099 686.899 344.995 686.528 344.786C686.157 344.574 685.865 344.256 685.653 343.832C685.441 343.404 685.335 342.866 685.335 342.216V337.364H686.508V342.136C686.508 342.693 686.664 343.137 686.975 343.469C687.29 343.8 687.691 343.966 688.178 343.966C688.47 343.966 688.767 343.891 689.068 343.742C689.373 343.593 689.628 343.364 689.834 343.056C690.043 342.748 690.147 342.355 690.147 341.878ZM694.643 340.406V345H693.469V337.364H694.603V338.557H694.702C694.881 338.169 695.153 337.857 695.518 337.622C695.882 337.384 696.353 337.264 696.93 337.264C697.447 337.264 697.899 337.37 698.287 337.582C698.675 337.791 698.976 338.109 699.192 338.537C699.407 338.961 699.515 339.498 699.515 340.148V345H698.342V340.227C698.342 339.627 698.186 339.16 697.874 338.825C697.563 338.487 697.135 338.318 696.592 338.318C696.217 338.318 695.882 338.399 695.587 338.562C695.296 338.724 695.065 338.961 694.896 339.273C694.727 339.584 694.643 339.962 694.643 340.406Z" fill="#1C1C1C"/>
<path d="M395.375 53H392.233V42.8182H395.514C396.502 42.8182 397.347 43.022 398.05 43.4297C398.752 43.834 399.291 44.4157 399.665 45.1747C400.04 45.9304 400.227 46.8352 400.227 47.8892C400.227 48.9498 400.038 49.8629 399.661 50.6286C399.283 51.3909 398.732 51.9775 398.01 52.3885C397.287 52.7962 396.409 53 395.375 53ZM393.466 51.9062H395.295C396.137 51.9062 396.835 51.7438 397.388 51.419C397.942 51.0942 398.355 50.6319 398.626 50.032C398.898 49.4321 399.034 48.7178 399.034 47.8892C399.034 47.0672 398.9 46.3596 398.631 45.7663C398.363 45.1697 397.962 44.7124 397.428 44.3942C396.895 44.0727 396.23 43.9119 395.435 43.9119H393.466V51.9062ZM406.949 49.8778V45.3636H408.122V53H406.949V51.7074H406.869C406.69 52.0952 406.412 52.425 406.034 52.6967C405.656 52.9652 405.179 53.0994 404.602 53.0994C404.125 53.0994 403.701 52.995 403.33 52.7862C402.958 52.5741 402.667 52.2559 402.455 51.8317C402.242 51.4041 402.136 50.8655 402.136 50.2159V45.3636H403.31V50.1364C403.31 50.6932 403.465 51.1373 403.777 51.4688C404.092 51.8002 404.493 51.9659 404.98 51.9659C405.272 51.9659 405.568 51.8913 405.87 51.7422C406.175 51.593 406.43 51.3643 406.636 51.0561C406.844 50.7479 406.949 50.3551 406.949 49.8778ZM410.271 53V45.3636H411.405V46.5568H411.504C411.663 46.1491 411.92 45.8326 412.275 45.6072C412.629 45.3786 413.055 45.2642 413.552 45.2642C414.056 45.2642 414.475 45.3786 414.81 45.6072C415.148 45.8326 415.412 46.1491 415.601 46.5568H415.68C415.876 46.1624 416.169 45.8492 416.56 45.6172C416.951 45.3819 417.42 45.2642 417.967 45.2642C418.65 45.2642 419.208 45.478 419.643 45.9055C420.077 46.3298 420.294 46.991 420.294 47.8892V53H419.121V47.8892C419.121 47.3258 418.966 46.9231 418.658 46.6811C418.35 46.4392 417.987 46.3182 417.569 46.3182C417.032 46.3182 416.617 46.4806 416.322 46.8054C416.027 47.1269 415.879 47.5346 415.879 48.0284V53H414.686V47.7699C414.686 47.3357 414.545 46.986 414.263 46.7209C413.982 46.4524 413.619 46.3182 413.175 46.3182C412.87 46.3182 412.585 46.3994 412.319 46.5618C412.058 46.7242 411.845 46.9496 411.683 47.2379C411.524 47.523 411.444 47.8527 411.444 48.2273V53H410.271ZM422.439 53V45.3636H423.573V46.5568H423.672C423.831 46.1491 424.088 45.8326 424.443 45.6072C424.797 45.3786 425.223 45.2642 425.72 45.2642C426.224 45.2642 426.643 45.3786 426.978 45.6072C427.316 45.8326 427.58 46.1491 427.769 46.5568H427.848C428.044 46.1624 428.337 45.8492 428.728 45.6172C429.119 45.3819 429.588 45.2642 430.135 45.2642C430.818 45.2642 431.376 45.478 431.811 45.9055C432.245 46.3298 432.462 46.991 432.462 47.8892V53H431.289V47.8892C431.289 47.3258 431.134 46.9231 430.826 46.6811C430.518 46.4392 430.155 46.3182 429.737 46.3182C429.2 46.3182 428.785 46.4806 428.49 46.8054C428.195 47.1269 428.047 47.5346 428.047 48.0284V53H426.854V47.7699C426.854 47.3357 426.713 46.986 426.431 46.7209C426.15 46.4524 425.787 46.3182 425.343 46.3182C425.038 46.3182 424.753 46.3994 424.487 46.5618C424.226 46.7242 424.013 46.9496 423.851 47.2379C423.692 47.523 423.612 47.8527 423.612 48.2273V53H422.439ZM435.089 55.8636C434.89 55.8636 434.713 55.8471 434.557 55.8139C434.402 55.7841 434.294 55.7543 434.234 55.7244L434.532 54.6903C434.818 54.7633 435.069 54.7898 435.288 54.7699C435.507 54.75 435.701 54.6522 435.87 54.4766C436.042 54.3042 436.2 54.0241 436.342 53.6364L436.561 53.0398L433.737 45.3636H435.01L437.118 51.4489H437.197L439.305 45.3636H440.578L437.336 54.1136C437.191 54.508 437.01 54.8345 436.795 55.093C436.579 55.3549 436.329 55.5488 436.044 55.6747C435.762 55.8007 435.444 55.8636 435.089 55.8636ZM449.624 42.8182V53H448.391V44.1108H448.331L445.845 45.7614V44.5085L448.391 42.8182H449.624Z" fill="#1C1C1C"/>
<circle cx="373" cy="48" r="6" fill="#882EFD"/>
<circle cx="485" cy="48" r="6" fill="#EA4242"/>
<rect x="593.5" y="31.5" width="119" height="33" rx="3.5" fill="#F7F7F8" stroke="#EAEAEA"/>
<path d="M601.676 43.9119V42.8182H609.312V43.9119H606.111V53H604.878V43.9119H601.676ZM612.23 48.4062V53H611.056V42.8182H612.23V46.5568H612.329C612.508 46.1624 612.776 45.8492 613.134 45.6172C613.496 45.3819 613.976 45.2642 614.576 45.2642C615.097 45.2642 615.552 45.3686 615.943 45.5774C616.334 45.7829 616.638 46.0994 616.853 46.527C617.072 46.9512 617.181 47.4915 617.181 48.1477V53H616.008V48.2273C616.008 47.6207 615.851 47.1518 615.536 46.8203C615.224 46.4856 614.792 46.3182 614.238 46.3182C613.854 46.3182 613.509 46.3994 613.204 46.5618C612.902 46.7242 612.664 46.9612 612.488 47.2727C612.316 47.5843 612.23 47.9621 612.23 48.4062ZM619.328 53V45.3636H620.501V53H619.328ZM619.924 44.0909C619.696 44.0909 619.498 44.013 619.333 43.8572C619.17 43.7015 619.089 43.5142 619.089 43.2955C619.089 43.0767 619.17 42.8894 619.333 42.7337C619.498 42.5779 619.696 42.5 619.924 42.5C620.153 42.5 620.349 42.5779 620.511 42.7337C620.677 42.8894 620.76 43.0767 620.76 43.2955C620.76 43.5142 620.677 43.7015 620.511 43.8572C620.349 44.013 620.153 44.0909 619.924 44.0909ZM628.059 47.0739L627.005 47.3722C626.939 47.1965 626.841 47.0258 626.712 46.8601C626.586 46.6911 626.414 46.5518 626.195 46.4425C625.976 46.3331 625.696 46.2784 625.355 46.2784C624.887 46.2784 624.498 46.3861 624.186 46.6016C623.878 46.8137 623.724 47.0838 623.724 47.4119C623.724 47.7036 623.83 47.9339 624.042 48.103C624.254 48.272 624.586 48.4129 625.036 48.5256L626.17 48.804C626.853 48.9697 627.361 49.2232 627.696 49.5646C628.031 49.9027 628.198 50.3385 628.198 50.8722C628.198 51.3097 628.072 51.7008 627.82 52.0455C627.572 52.3902 627.224 52.6619 626.776 52.8608C626.329 53.0597 625.809 53.1591 625.215 53.1591C624.436 53.1591 623.792 52.9901 623.281 52.652C622.771 52.3139 622.448 51.8201 622.312 51.1705L623.426 50.892C623.532 51.303 623.732 51.6113 624.027 51.8168C624.325 52.0223 624.715 52.125 625.195 52.125C625.742 52.125 626.177 52.009 626.498 51.777C626.823 51.5417 626.985 51.2599 626.985 50.9318C626.985 50.6667 626.892 50.4446 626.707 50.2656C626.521 50.0833 626.236 49.9474 625.852 49.858L624.579 49.5597C623.88 49.3939 623.366 49.1371 623.038 48.7891C622.713 48.4377 622.551 47.9986 622.551 47.4716C622.551 47.0407 622.672 46.6596 622.914 46.3281C623.159 45.9967 623.492 45.7365 623.913 45.5476C624.337 45.3587 624.818 45.2642 625.355 45.2642C626.11 45.2642 626.704 45.4299 627.134 45.7614C627.569 46.0928 627.877 46.5303 628.059 47.0739ZM635.632 53L633.305 45.3636H634.538L636.189 51.2102H636.268L637.899 45.3636H639.152L640.763 51.1903H640.842L642.493 45.3636H643.726L641.399 53H640.246L638.575 47.1335H638.456L636.786 53H635.632ZM648.219 53.1591C647.483 53.1591 646.848 52.9967 646.315 52.6719C645.785 52.3438 645.375 51.8864 645.087 51.2997C644.802 50.7098 644.659 50.0237 644.659 49.2415C644.659 48.4593 644.802 47.7699 645.087 47.1733C645.375 46.5734 645.776 46.1061 646.29 45.7713C646.807 45.4332 647.41 45.2642 648.1 45.2642C648.497 45.2642 648.89 45.3305 649.278 45.4631C649.666 45.5956 650.019 45.8111 650.337 46.1094C650.655 46.4044 650.909 46.7955 651.097 47.2827C651.286 47.7699 651.381 48.3698 651.381 49.0824V49.5795H645.494V48.5653H650.188C650.188 48.1345 650.102 47.75 649.929 47.4119C649.76 47.0739 649.518 46.8071 649.203 46.6115C648.892 46.416 648.524 46.3182 648.1 46.3182C647.632 46.3182 647.228 46.4342 646.887 46.6662C646.548 46.8949 646.288 47.1932 646.106 47.5611C645.924 47.929 645.833 48.3234 645.833 48.7443V49.4205C645.833 49.9972 645.932 50.486 646.131 50.8871C646.333 51.2848 646.613 51.5881 646.971 51.7969C647.329 52.0024 647.745 52.1051 648.219 52.1051C648.527 52.1051 648.806 52.062 649.054 51.9759C649.306 51.8864 649.523 51.7538 649.705 51.5781C649.888 51.3991 650.029 51.1771 650.128 50.9119L651.262 51.2301C651.142 51.6146 650.942 51.9527 650.66 52.2443C650.378 52.5327 650.03 52.758 649.616 52.9205C649.202 53.0795 648.736 53.1591 648.219 53.1591ZM656.367 53.1591C655.632 53.1591 654.997 52.9967 654.463 52.6719C653.933 52.3438 653.524 51.8864 653.235 51.2997C652.95 50.7098 652.808 50.0237 652.808 49.2415C652.808 48.4593 652.95 47.7699 653.235 47.1733C653.524 46.5734 653.925 46.1061 654.438 45.7713C654.955 45.4332 655.559 45.2642 656.248 45.2642C656.646 45.2642 657.039 45.3305 657.426 45.4631C657.814 45.5956 658.167 45.8111 658.485 46.1094C658.803 46.4044 659.057 46.7955 659.246 47.2827C659.435 47.7699 659.529 48.3698 659.529 49.0824V49.5795H653.643V48.5653H658.336C658.336 48.1345 658.25 47.75 658.078 47.4119C657.909 47.0739 657.667 46.8071 657.352 46.6115C657.04 46.416 656.672 46.3182 656.248 46.3182C655.781 46.3182 655.376 46.4342 655.035 46.6662C654.697 46.8949 654.437 47.1932 654.254 47.5611C654.072 47.929 653.981 48.3234 653.981 48.7443V49.4205C653.981 49.9972 654.08 50.486 654.279 50.8871C654.481 51.2848 654.762 51.5881 655.119 51.7969C655.477 52.0024 655.893 52.1051 656.367 52.1051C656.676 52.1051 656.954 52.062 657.203 51.9759C657.454 51.8864 657.672 51.7538 657.854 51.5781C658.036 51.3991 658.177 51.1771 658.276 50.9119L659.41 51.2301C659.291 51.6146 659.09 51.9527 658.808 52.2443C658.527 52.5327 658.179 52.758 657.764 52.9205C657.35 53.0795 656.884 53.1591 656.367 53.1591ZM662.408 50.2159L662.388 48.7642H662.627L665.968 45.3636H667.419L663.86 48.9631H663.76L662.408 50.2159ZM661.314 53V42.8182H662.487V53H661.314ZM666.166 53L663.183 49.2216L664.019 48.4062L667.658 53H666.166Z" fill="#1C1C1C"/>
<path d="M701.473 45.4733C701.411 45.4108 701.338 45.3612 701.256 45.3274C701.175 45.2935 701.088 45.2761 701 45.2761C700.912 45.2761 700.825 45.2935 700.744 45.3274C700.662 45.3612 700.589 45.4108 700.527 45.4733L697.473 48.5267C697.411 48.5891 697.338 48.6387 697.256 48.6726C697.175 48.7064 697.088 48.7239 697 48.7239C696.912 48.7239 696.825 48.7064 696.744 48.6726C696.662 48.6387 696.589 48.5891 696.527 48.5267L693.473 45.4733C693.411 45.4108 693.338 45.3612 693.256 45.3274C693.175 45.2935 693.088 45.2761 693 45.2761C692.912 45.2761 692.825 45.2935 692.744 45.3274C692.662 45.3612 692.589 45.4108 692.527 45.4733C692.402 45.5982 692.333 45.7672 692.333 45.9433C692.333 46.1194 692.402 46.2884 692.527 46.4133L695.587 49.4733C695.962 49.8479 696.47 50.0582 697 50.0582C697.53 50.0582 698.038 49.8479 698.413 49.4733L701.473 46.4133C701.597 46.2884 701.667 46.1194 701.667 45.9433C701.667 45.7672 701.597 45.5982 701.473 45.4733Z" fill="black"/>
<path d="M103 315L705 315" stroke="#EAEAEA"/>
<path d="M103 315L103 111" stroke="#EAEAEA"/>
<circle cx="123" cy="202" r="4" fill="#882EFD"/>
<circle cx="309" cy="202" r="4" fill="#882EFD"/>
<circle cx="402" cy="148" r="4" fill="#882EFD"/>
<circle cx="495" cy="165" r="4" fill="#882EFD"/>
<circle cx="588" cy="142" r="4" fill="#882EFD"/>
<circle cx="681" cy="115" r="4" fill="#882EFD"/>
<circle cx="216" cy="282" r="4" fill="#882EFD"/>
<path d="M123 239C123 239 178.904 257.008 216 259C252.455 260.957 275 263.384 309 249C343 234.616 368.5 194 402 190C435.5 186 460.5 196 495 206C531.271 216.513 567.5 225.5 588 233C608.5 240.5 656.5 266.5 681 281.5" stroke="#FDD3D3" stroke-width="2" stroke-linecap="round"/>
<circle cx="123" cy="239" r="4" fill="#EA4242"/>
<circle cx="216" cy="259" r="4" fill="#EA4242"/>
<circle cx="309" cy="249" r="4" fill="#EA4242"/>
<circle cx="402" cy="190" r="4" fill="#EA4242"/>
<circle cx="495" cy="206" r="4" fill="#EA4242"/>
<circle cx="588" cy="233" r="4" fill="#EA4242"/>
<circle cx="681" cy="281" r="4" fill="#EA4242"/>
<defs>
<filter id="filter0_d_6_749" x="0" y="0" width="746" height="416" filterUnits="userSpaceOnUse" color-interpolation-filters="sRGB">
<feFlood flood-opacity="0" result="BackgroundImageFix"/>
<feColorMatrix in="SourceAlpha" type="matrix" values="0 0 0 0 0 0 0 0 0 0 0 0 0 0 0 0 0 0 127 0" result="hardAlpha"/>
<feOffset dx="1" dy="1"/>
<feGaussianBlur stdDeviation="8"/>
<feComposite in2="hardAlpha" operator="out"/>
<feColorMatrix type="matrix" values="0 0 0 0 0 0 0 0 0 0 0 0 0 0 0 0 0 0 0.08 0"/>
<feBlend mode="normal" in2="BackgroundImageFix" result="effect1_dropShadow_6_749"/>
<feBlend mode="normal" in="SourceGraphic" in2="effect1_dropShadow_6_749" result="shape"/>
</filter>
</defs>
</svg>
